<mxfile host="Electron" agent="Mozilla/5.0 (Windows NT 10.0; Win64; x64) AppleWebKit/537.36 (KHTML, like Gecko) draw.io/26.2.15 Chrome/134.0.6998.205 Electron/35.2.1 Safari/537.36" version="26.2.15">
  <diagram id="C5RBs43oDa-KdzZeNtuy" name="Page-1">
    <mxGraphModel dx="4259" dy="2734" grid="1" gridSize="10" guides="1" tooltips="1" connect="1" arrows="1" fold="1" page="1" pageScale="1" pageWidth="827" pageHeight="1169" math="0" shadow="0">
      <root>
        <mxCell id="WIyWlLk6GJQsqaUBKTNV-0" />
        <mxCell id="WIyWlLk6GJQsqaUBKTNV-1" parent="WIyWlLk6GJQsqaUBKTNV-0" />
        <mxCell id="zkfFHV4jXpPFQw0GAbJ--0" value="User(Abstract)" style="swimlane;fontStyle=0;align=center;verticalAlign=top;childLayout=stackLayout;horizontal=1;startSize=26;horizontalStack=0;resizeParent=1;resizeLast=0;collapsible=1;marginBottom=0;rounded=0;shadow=0;strokeWidth=1;" parent="WIyWlLk6GJQsqaUBKTNV-1" vertex="1">
          <mxGeometry x="-150" y="-440" width="440" height="170" as="geometry">
            <mxRectangle x="230" y="140" width="160" height="26" as="alternateBounds" />
          </mxGeometry>
        </mxCell>
        <mxCell id="zkfFHV4jXpPFQw0GAbJ--3" value="- Name : String  &#xa;- Email : String&#xa;- username : String &#xa;- password : String  " style="text;align=left;verticalAlign=top;spacingLeft=4;spacingRight=4;overflow=hidden;rotatable=0;points=[[0,0.5],[1,0.5]];portConstraint=eastwest;rounded=0;shadow=0;html=0;" parent="zkfFHV4jXpPFQw0GAbJ--0" vertex="1">
          <mxGeometry y="26" width="440" height="84" as="geometry" />
        </mxCell>
        <mxCell id="zkfFHV4jXpPFQw0GAbJ--4" value="" style="line;html=1;strokeWidth=1;align=left;verticalAlign=middle;spacingTop=-1;spacingLeft=3;spacingRight=3;rotatable=0;labelPosition=right;points=[];portConstraint=eastwest;" parent="zkfFHV4jXpPFQw0GAbJ--0" vertex="1">
          <mxGeometry y="110" width="440" height="10" as="geometry" />
        </mxCell>
        <mxCell id="ANeMYZqWPXqpDpsDzMu_-3" value="+ signup(string name , string email , string user name , string password) : void&lt;br&gt;+ login(string inputEmail , string inputPassword) : bool" style="text;html=1;align=left;verticalAlign=middle;resizable=0;points=[];autosize=1;strokeColor=none;fillColor=none;" parent="zkfFHV4jXpPFQw0GAbJ--0" vertex="1">
          <mxGeometry y="120" width="440" height="40" as="geometry" />
        </mxCell>
        <mxCell id="zkfFHV4jXpPFQw0GAbJ--6" value="Investor" style="swimlane;fontStyle=0;align=center;verticalAlign=top;childLayout=stackLayout;horizontal=1;startSize=26;horizontalStack=0;resizeParent=1;resizeLast=0;collapsible=1;marginBottom=0;rounded=0;shadow=0;strokeWidth=1;" parent="WIyWlLk6GJQsqaUBKTNV-1" vertex="1">
          <mxGeometry x="-890" y="-20" width="460" height="278" as="geometry">
            <mxRectangle x="130" y="380" width="160" height="26" as="alternateBounds" />
          </mxGeometry>
        </mxCell>
        <mxCell id="zkfFHV4jXpPFQw0GAbJ--7" value="- portfolio : List &lt;Asset&gt;&#xa;- goals : List &lt;FinincialGoal&gt;&#xa;- bankAccounts : List &lt;BankAccount&gt;&#xa;+ vs : ValidationService &#xa;+ zakatCalculator : zakatCalculator&#xa;" style="text;align=left;verticalAlign=top;spacingLeft=4;spacingRight=4;overflow=hidden;rotatable=0;points=[[0,0.5],[1,0.5]];portConstraint=eastwest;" parent="zkfFHV4jXpPFQw0GAbJ--6" vertex="1">
          <mxGeometry y="26" width="460" height="84" as="geometry" />
        </mxCell>
        <mxCell id="8kL_XNUACjtZRWCxMRM6-8" value="" style="line;strokeWidth=1;fillColor=none;align=left;verticalAlign=middle;spacingTop=-1;spacingLeft=3;spacingRight=3;rotatable=0;labelPosition=right;points=[];portConstraint=eastwest;strokeColor=inherit;" parent="zkfFHV4jXpPFQw0GAbJ--6" vertex="1">
          <mxGeometry y="110" width="460" height="8" as="geometry" />
        </mxCell>
        <mxCell id="ANeMYZqWPXqpDpsDzMu_-5" value="&lt;div&gt;&lt;font&gt;+ addAsset(Asset asset) : void&lt;/font&gt;&lt;/div&gt;&lt;div&gt;&lt;font&gt;+ removeAsset(int assetID) : void&lt;/font&gt;&lt;/div&gt;&lt;div&gt;&lt;font&gt;+ editAsset(int assetID , string newName , string newType) : void&lt;/font&gt;&lt;/div&gt;&lt;div&gt;&lt;font&gt;+ addRiskAsset (int assetID , string strategy , double riskScore) : void&lt;/font&gt;&lt;/div&gt;&lt;div&gt;&lt;font&gt;+ printAllRiskAsset () : void&lt;/font&gt;&lt;span style=&quot;background-color: transparent; color: light-dark(rgb(0, 0, 0), rgb(255, 255, 255));&quot;&gt;&amp;nbsp;&lt;/span&gt;&lt;/div&gt;&lt;div&gt;&lt;font&gt;+ addBankAccount(BankAccount bankaccount) : void&lt;/font&gt;&lt;/div&gt;&lt;div&gt;&lt;font&gt;+ removeBankAccount(int accountnumber) : void&lt;/font&gt;&lt;/div&gt;&lt;div&gt;&lt;font&gt;+ addGoal (FinancialGoal goal)&amp;nbsp; : void&lt;/font&gt;&lt;/div&gt;&lt;div&gt;&lt;font&gt;+ updateGoal (int goalID , string newDescription , double newTargetAmount) : void&amp;nbsp;&lt;br&gt;+ calculateTotalAssets() : double&lt;/font&gt;&lt;/div&gt;" style="text;html=1;align=left;verticalAlign=middle;resizable=0;points=[];autosize=1;strokeColor=none;fillColor=none;" parent="zkfFHV4jXpPFQw0GAbJ--6" vertex="1">
          <mxGeometry y="118" width="460" height="160" as="geometry" />
        </mxCell>
        <mxCell id="zkfFHV4jXpPFQw0GAbJ--12" value="" style="endArrow=block;endSize=10;endFill=0;shadow=0;strokeWidth=1;rounded=0;curved=0;edgeStyle=elbowEdgeStyle;elbow=vertical;" parent="WIyWlLk6GJQsqaUBKTNV-1" source="zkfFHV4jXpPFQw0GAbJ--6" target="zkfFHV4jXpPFQw0GAbJ--0" edge="1">
          <mxGeometry width="160" relative="1" as="geometry">
            <mxPoint x="200" y="203" as="sourcePoint" />
            <mxPoint x="200" y="203" as="targetPoint" />
          </mxGeometry>
        </mxCell>
        <mxCell id="zkfFHV4jXpPFQw0GAbJ--13" value="Admin" style="swimlane;fontStyle=0;align=center;verticalAlign=top;childLayout=stackLayout;horizontal=1;startSize=26;horizontalStack=0;resizeParent=1;resizeLast=0;collapsible=1;marginBottom=0;rounded=0;shadow=0;strokeWidth=1;" parent="WIyWlLk6GJQsqaUBKTNV-1" vertex="1">
          <mxGeometry x="550" y="-20" width="190" height="126" as="geometry">
            <mxRectangle x="340" y="380" width="170" height="26" as="alternateBounds" />
          </mxGeometry>
        </mxCell>
        <mxCell id="ANeMYZqWPXqpDpsDzMu_-7" value="&lt;font style=&quot;font-size: 14px;&quot;&gt;+ viewReports()&lt;br&gt;+manageFraud()&lt;br&gt;+connectAccounts()&lt;/font&gt;&lt;div&gt;&lt;font style=&quot;font-size: 14px;&quot;&gt;+&amp;nbsp;generateSystemReport()&lt;br&gt;+&amp;nbsp;verifyTransactions()&lt;/font&gt;&lt;/div&gt;" style="text;html=1;align=left;verticalAlign=middle;resizable=0;points=[];autosize=1;strokeColor=none;fillColor=none;" parent="zkfFHV4jXpPFQw0GAbJ--13" vertex="1">
          <mxGeometry y="26" width="190" height="100" as="geometry" />
        </mxCell>
        <mxCell id="zkfFHV4jXpPFQw0GAbJ--16" value="" style="endArrow=block;endSize=10;endFill=0;shadow=0;strokeWidth=1;rounded=0;curved=0;edgeStyle=elbowEdgeStyle;elbow=vertical;" parent="WIyWlLk6GJQsqaUBKTNV-1" source="zkfFHV4jXpPFQw0GAbJ--13" target="zkfFHV4jXpPFQw0GAbJ--0" edge="1">
          <mxGeometry width="160" relative="1" as="geometry">
            <mxPoint x="210" y="373" as="sourcePoint" />
            <mxPoint x="310" y="271" as="targetPoint" />
          </mxGeometry>
        </mxCell>
        <mxCell id="ANeMYZqWPXqpDpsDzMu_-8" value="Asset" style="swimlane;fontStyle=0;align=center;verticalAlign=top;childLayout=stackLayout;horizontal=1;startSize=26;horizontalStack=0;resizeParent=1;resizeLast=0;collapsible=1;marginBottom=0;rounded=0;shadow=0;strokeWidth=1;" parent="WIyWlLk6GJQsqaUBKTNV-1" vertex="1">
          <mxGeometry x="-1200" y="376" width="180" height="144" as="geometry">
            <mxRectangle x="340" y="380" width="170" height="26" as="alternateBounds" />
          </mxGeometry>
        </mxCell>
        <mxCell id="ANeMYZqWPXqpDpsDzMu_-9" value="&lt;font style=&quot;font-size: 14px;&quot;&gt;- assetID: int&lt;br&gt;- name: string&lt;/font&gt;&lt;div&gt;&lt;font style=&quot;font-size: 14px;&quot;&gt;- type : string&lt;br&gt;-&amp;nbsp;quantity: int&lt;br&gt;- purchasePrice : int&lt;/font&gt;&lt;div&gt;&lt;font style=&quot;&quot;&gt;- purchaseDate : string&lt;/font&gt;&lt;/div&gt;&lt;/div&gt;" style="text;html=1;align=left;verticalAlign=middle;resizable=0;points=[];autosize=1;strokeColor=none;fillColor=none;" parent="ANeMYZqWPXqpDpsDzMu_-8" vertex="1">
          <mxGeometry y="26" width="180" height="110" as="geometry" />
        </mxCell>
        <mxCell id="ANeMYZqWPXqpDpsDzMu_-14" value="" style="line;strokeWidth=1;fillColor=none;align=left;verticalAlign=middle;spacingTop=-1;spacingLeft=3;spacingRight=3;rotatable=0;labelPosition=right;points=[];portConstraint=eastwest;strokeColor=inherit;" parent="ANeMYZqWPXqpDpsDzMu_-8" vertex="1">
          <mxGeometry y="136" width="180" height="8" as="geometry" />
        </mxCell>
        <mxCell id="ANeMYZqWPXqpDpsDzMu_-16" value="FinancialGoal" style="swimlane;fontStyle=0;align=center;verticalAlign=top;childLayout=stackLayout;horizontal=1;startSize=26;horizontalStack=0;resizeParent=1;resizeLast=0;collapsible=1;marginBottom=0;rounded=0;shadow=0;strokeWidth=1;" parent="WIyWlLk6GJQsqaUBKTNV-1" vertex="1">
          <mxGeometry x="-970" y="438" width="170" height="204" as="geometry">
            <mxRectangle x="340" y="380" width="170" height="26" as="alternateBounds" />
          </mxGeometry>
        </mxCell>
        <mxCell id="ANeMYZqWPXqpDpsDzMu_-17" value="&lt;font style=&quot;font-size: 14px;&quot;&gt;- goalID: int&lt;br&gt;- description: string&lt;br&gt;- targetAmount: double&lt;/font&gt;&lt;div&gt;- currentProgress : double&lt;/div&gt;" style="text;html=1;align=left;verticalAlign=middle;resizable=0;points=[];autosize=1;strokeColor=none;fillColor=none;" parent="ANeMYZqWPXqpDpsDzMu_-16" vertex="1">
          <mxGeometry y="26" width="170" height="80" as="geometry" />
        </mxCell>
        <mxCell id="ANeMYZqWPXqpDpsDzMu_-18" value="" style="line;strokeWidth=1;fillColor=none;align=left;verticalAlign=middle;spacingTop=-1;spacingLeft=3;spacingRight=3;rotatable=0;labelPosition=right;points=[];portConstraint=eastwest;strokeColor=inherit;" parent="ANeMYZqWPXqpDpsDzMu_-16" vertex="1">
          <mxGeometry y="106" width="170" height="8" as="geometry" />
        </mxCell>
        <mxCell id="ANeMYZqWPXqpDpsDzMu_-19" value="+&amp;nbsp;addGoal() : void&lt;br&gt;+&amp;nbsp;updateGoal() : void&lt;br&gt;+&amp;nbsp;deleteGoal() : void&amp;nbsp;&lt;br&gt;+&amp;nbsp;calculateProgress() : void&amp;nbsp;&lt;br&gt;+ sendReminder() : void" style="text;html=1;align=left;verticalAlign=middle;resizable=0;points=[];autosize=1;strokeColor=none;fillColor=none;" parent="ANeMYZqWPXqpDpsDzMu_-16" vertex="1">
          <mxGeometry y="114" width="170" height="90" as="geometry" />
        </mxCell>
        <mxCell id="ANeMYZqWPXqpDpsDzMu_-21" value="Risk" style="swimlane;fontStyle=0;align=center;verticalAlign=top;childLayout=stackLayout;horizontal=1;startSize=26;horizontalStack=0;resizeParent=1;resizeLast=0;collapsible=1;marginBottom=0;rounded=0;shadow=0;strokeWidth=1;" parent="WIyWlLk6GJQsqaUBKTNV-1" vertex="1">
          <mxGeometry x="-1190" y="598" width="180" height="145" as="geometry">
            <mxRectangle x="340" y="380" width="170" height="26" as="alternateBounds" />
          </mxGeometry>
        </mxCell>
        <mxCell id="ANeMYZqWPXqpDpsDzMu_-22" value="&lt;font style=&quot;font-size: 14px;&quot;&gt;- riskScore: double&lt;br&gt;- strategy: string&lt;/font&gt;&lt;div&gt;&lt;br&gt;&lt;/div&gt;" style="text;html=1;align=left;verticalAlign=middle;resizable=0;points=[];autosize=1;strokeColor=none;fillColor=none;" parent="ANeMYZqWPXqpDpsDzMu_-21" vertex="1">
          <mxGeometry y="26" width="180" height="60" as="geometry" />
        </mxCell>
        <mxCell id="ANeMYZqWPXqpDpsDzMu_-23" value="" style="line;strokeWidth=1;fillColor=none;align=left;verticalAlign=middle;spacingTop=-1;spacingLeft=3;spacingRight=3;rotatable=0;labelPosition=right;points=[];portConstraint=eastwest;strokeColor=inherit;" parent="ANeMYZqWPXqpDpsDzMu_-21" vertex="1">
          <mxGeometry y="86" width="180" height="8" as="geometry" />
        </mxCell>
        <mxCell id="ANeMYZqWPXqpDpsDzMu_-24" value="+ printRiskDetails : void&lt;div&gt;&lt;div&gt;+ getRiskCategory() : double&lt;/div&gt;&lt;/div&gt;" style="text;html=1;align=left;verticalAlign=middle;resizable=0;points=[];autosize=1;strokeColor=none;fillColor=none;" parent="ANeMYZqWPXqpDpsDzMu_-21" vertex="1">
          <mxGeometry y="94" width="180" height="40" as="geometry" />
        </mxCell>
        <mxCell id="ANeMYZqWPXqpDpsDzMu_-25" value="PerformanceMetrics" style="swimlane;fontStyle=0;align=center;verticalAlign=top;childLayout=stackLayout;horizontal=1;startSize=26;horizontalStack=0;resizeParent=1;resizeLast=0;collapsible=1;marginBottom=0;rounded=0;shadow=0;strokeWidth=1;" parent="WIyWlLk6GJQsqaUBKTNV-1" vertex="1">
          <mxGeometry x="-790" y="448" width="170" height="150" as="geometry">
            <mxRectangle x="340" y="380" width="170" height="26" as="alternateBounds" />
          </mxGeometry>
        </mxCell>
        <mxCell id="ANeMYZqWPXqpDpsDzMu_-26" value="&lt;font style=&quot;font-size: 14px;&quot;&gt;- metricsID: int&lt;br&gt;- returns: double&lt;br&gt;- volatility: double&lt;/font&gt;&lt;div&gt;&lt;br&gt;&lt;/div&gt;" style="text;html=1;align=left;verticalAlign=middle;resizable=0;points=[];autosize=1;strokeColor=none;fillColor=none;" parent="ANeMYZqWPXqpDpsDzMu_-25" vertex="1">
          <mxGeometry y="26" width="170" height="80" as="geometry" />
        </mxCell>
        <mxCell id="ANeMYZqWPXqpDpsDzMu_-27" value="" style="line;strokeWidth=1;fillColor=none;align=left;verticalAlign=middle;spacingTop=-1;spacingLeft=3;spacingRight=3;rotatable=0;labelPosition=right;points=[];portConstraint=eastwest;strokeColor=inherit;" parent="ANeMYZqWPXqpDpsDzMu_-25" vertex="1">
          <mxGeometry y="106" width="170" height="8" as="geometry" />
        </mxCell>
        <mxCell id="ANeMYZqWPXqpDpsDzMu_-28" value="+ calculateMetrics() : double" style="text;html=1;align=left;verticalAlign=middle;resizable=0;points=[];autosize=1;strokeColor=none;fillColor=none;" parent="ANeMYZqWPXqpDpsDzMu_-25" vertex="1">
          <mxGeometry y="114" width="170" height="30" as="geometry" />
        </mxCell>
        <mxCell id="ANeMYZqWPXqpDpsDzMu_-29" value="ZakatCalculator" style="swimlane;fontStyle=0;align=center;verticalAlign=top;childLayout=stackLayout;horizontal=1;startSize=26;horizontalStack=0;resizeParent=1;resizeLast=0;collapsible=1;marginBottom=0;rounded=0;shadow=0;strokeWidth=1;" parent="WIyWlLk6GJQsqaUBKTNV-1" vertex="1">
          <mxGeometry x="-600" y="470" width="240" height="130" as="geometry">
            <mxRectangle x="340" y="380" width="170" height="26" as="alternateBounds" />
          </mxGeometry>
        </mxCell>
        <mxCell id="ANeMYZqWPXqpDpsDzMu_-30" value="&lt;div&gt;- zakat_Rate : double&lt;/div&gt;" style="text;html=1;align=left;verticalAlign=middle;resizable=0;points=[];autosize=1;strokeColor=none;fillColor=none;" parent="ANeMYZqWPXqpDpsDzMu_-29" vertex="1">
          <mxGeometry y="26" width="240" height="30" as="geometry" />
        </mxCell>
        <mxCell id="3q-L7HUS71UoEhC-n5JC-15" value="" style="line;strokeWidth=1;fillColor=none;align=left;verticalAlign=middle;spacingTop=-1;spacingLeft=3;spacingRight=3;rotatable=0;labelPosition=right;points=[];portConstraint=eastwest;strokeColor=inherit;" vertex="1" parent="ANeMYZqWPXqpDpsDzMu_-29">
          <mxGeometry y="56" width="240" height="8" as="geometry" />
        </mxCell>
        <mxCell id="3q-L7HUS71UoEhC-n5JC-16" value="+ calculateZakat(double netAssets) : double" style="text;html=1;align=left;verticalAlign=middle;resizable=0;points=[];autosize=1;strokeColor=none;fillColor=none;" vertex="1" parent="ANeMYZqWPXqpDpsDzMu_-29">
          <mxGeometry y="64" width="240" height="30" as="geometry" />
        </mxCell>
        <mxCell id="ANeMYZqWPXqpDpsDzMu_-35" value="Report" style="swimlane;fontStyle=0;align=center;verticalAlign=top;childLayout=stackLayout;horizontal=1;startSize=26;horizontalStack=0;resizeParent=1;resizeLast=0;collapsible=1;marginBottom=0;rounded=0;shadow=0;strokeWidth=1;" parent="WIyWlLk6GJQsqaUBKTNV-1" vertex="1">
          <mxGeometry x="710" y="290" width="150" height="154" as="geometry">
            <mxRectangle x="340" y="380" width="170" height="26" as="alternateBounds" />
          </mxGeometry>
        </mxCell>
        <mxCell id="ANeMYZqWPXqpDpsDzMu_-36" value="&lt;font style=&quot;font-size: 14px;&quot;&gt;- reportID: int&lt;br&gt;- content: string&lt;br&gt;-&amp;nbsp;date: Date&lt;span style=&quot;white-space: pre;&quot;&gt;&#x9;&lt;/span&gt;&lt;/font&gt;&lt;div&gt;&lt;br&gt;&lt;/div&gt;" style="text;html=1;align=left;verticalAlign=middle;resizable=0;points=[];autosize=1;strokeColor=none;fillColor=none;" parent="ANeMYZqWPXqpDpsDzMu_-35" vertex="1">
          <mxGeometry y="26" width="150" height="80" as="geometry" />
        </mxCell>
        <mxCell id="ANeMYZqWPXqpDpsDzMu_-37" value="" style="line;strokeWidth=1;fillColor=none;align=left;verticalAlign=middle;spacingTop=-1;spacingLeft=3;spacingRight=3;rotatable=0;labelPosition=right;points=[];portConstraint=eastwest;strokeColor=inherit;" parent="ANeMYZqWPXqpDpsDzMu_-35" vertex="1">
          <mxGeometry y="106" width="150" height="8" as="geometry" />
        </mxCell>
        <mxCell id="ANeMYZqWPXqpDpsDzMu_-38" value="+&amp;nbsp;generateReport()&lt;br&gt;+&amp;nbsp;getInsights()" style="text;html=1;align=left;verticalAlign=middle;resizable=0;points=[];autosize=1;strokeColor=none;fillColor=none;" parent="ANeMYZqWPXqpDpsDzMu_-35" vertex="1">
          <mxGeometry y="114" width="150" height="40" as="geometry" />
        </mxCell>
        <mxCell id="ANeMYZqWPXqpDpsDzMu_-39" value="BankAccount" style="swimlane;fontStyle=0;align=center;verticalAlign=top;childLayout=stackLayout;horizontal=1;startSize=26;horizontalStack=0;resizeParent=1;resizeLast=0;collapsible=1;marginBottom=0;rounded=0;shadow=0;strokeWidth=1;" parent="WIyWlLk6GJQsqaUBKTNV-1" vertex="1">
          <mxGeometry x="-340" y="444" width="170" height="144" as="geometry">
            <mxRectangle x="340" y="380" width="170" height="26" as="alternateBounds" />
          </mxGeometry>
        </mxCell>
        <mxCell id="ANeMYZqWPXqpDpsDzMu_-40" value="&lt;font style=&quot;font-size: 14px;&quot;&gt;- accountNumber: string&lt;br&gt;- bankName: string&lt;br&gt;- userID: int&lt;br&gt;- cardNumber : string&lt;br&gt;- cvv : int&amp;nbsp;&lt;br&gt;- expireDate : Date&lt;/font&gt;" style="text;html=1;align=left;verticalAlign=middle;resizable=0;points=[];autosize=1;strokeColor=none;fillColor=none;" parent="ANeMYZqWPXqpDpsDzMu_-39" vertex="1">
          <mxGeometry y="26" width="170" height="110" as="geometry" />
        </mxCell>
        <mxCell id="ANeMYZqWPXqpDpsDzMu_-47" value="" style="line;strokeWidth=1;fillColor=none;align=left;verticalAlign=middle;spacingTop=-1;spacingLeft=3;spacingRight=3;rotatable=0;labelPosition=right;points=[];portConstraint=eastwest;strokeColor=inherit;" parent="ANeMYZqWPXqpDpsDzMu_-39" vertex="1">
          <mxGeometry y="136" width="170" height="8" as="geometry" />
        </mxCell>
        <mxCell id="ANeMYZqWPXqpDpsDzMu_-41" value="" style="line;strokeWidth=1;fillColor=none;align=left;verticalAlign=middle;spacingTop=-1;spacingLeft=3;spacingRight=3;rotatable=0;labelPosition=right;points=[];portConstraint=eastwest;strokeColor=inherit;" parent="ANeMYZqWPXqpDpsDzMu_-39" vertex="1">
          <mxGeometry y="144" width="170" as="geometry" />
        </mxCell>
        <mxCell id="ANeMYZqWPXqpDpsDzMu_-48" value="FraudulentActivity" style="swimlane;fontStyle=0;align=center;verticalAlign=top;childLayout=stackLayout;horizontal=1;startSize=26;horizontalStack=0;resizeParent=1;resizeLast=0;collapsible=1;marginBottom=0;rounded=0;shadow=0;strokeWidth=1;" parent="WIyWlLk6GJQsqaUBKTNV-1" vertex="1">
          <mxGeometry x="480" y="330" width="150" height="140" as="geometry">
            <mxRectangle x="340" y="380" width="170" height="26" as="alternateBounds" />
          </mxGeometry>
        </mxCell>
        <mxCell id="ANeMYZqWPXqpDpsDzMu_-49" value="&lt;font style=&quot;&quot;&gt;&lt;span style=&quot;font-size: 14px;&quot;&gt;- activityID: int&lt;/span&gt;&lt;br&gt;&lt;span style=&quot;font-size: 14px;&quot;&gt;- userID: int&lt;/span&gt;&lt;br&gt;&lt;font style=&quot;font-size: 15px;&quot;&gt;-&amp;nbsp;&lt;/font&gt;&lt;/font&gt;&lt;font style=&quot;font-size: 15px;&quot;&gt;details: string&lt;/font&gt;" style="text;html=1;align=left;verticalAlign=middle;resizable=0;points=[];autosize=1;strokeColor=none;fillColor=none;" parent="ANeMYZqWPXqpDpsDzMu_-48" vertex="1">
          <mxGeometry y="26" width="150" height="70" as="geometry" />
        </mxCell>
        <mxCell id="ANeMYZqWPXqpDpsDzMu_-50" value="" style="line;strokeWidth=1;fillColor=none;align=left;verticalAlign=middle;spacingTop=-1;spacingLeft=3;spacingRight=3;rotatable=0;labelPosition=right;points=[];portConstraint=eastwest;strokeColor=inherit;" parent="ANeMYZqWPXqpDpsDzMu_-48" vertex="1">
          <mxGeometry y="96" width="150" height="8" as="geometry" />
        </mxCell>
        <mxCell id="ANeMYZqWPXqpDpsDzMu_-51" value="+&amp;nbsp;detectFraud()" style="text;html=1;align=left;verticalAlign=middle;resizable=0;points=[];autosize=1;strokeColor=none;fillColor=none;" parent="ANeMYZqWPXqpDpsDzMu_-48" vertex="1">
          <mxGeometry y="104" width="150" height="30" as="geometry" />
        </mxCell>
        <mxCell id="ANeMYZqWPXqpDpsDzMu_-52" value="DatabaseConnector" style="swimlane;fontStyle=0;align=center;verticalAlign=top;childLayout=stackLayout;horizontal=1;startSize=26;horizontalStack=0;resizeParent=1;resizeLast=0;collapsible=1;marginBottom=0;rounded=0;shadow=0;strokeWidth=1;" parent="WIyWlLk6GJQsqaUBKTNV-1" vertex="1">
          <mxGeometry x="-70" y="154" width="290" height="126" as="geometry">
            <mxRectangle x="130" y="380" width="160" height="26" as="alternateBounds" />
          </mxGeometry>
        </mxCell>
        <mxCell id="ANeMYZqWPXqpDpsDzMu_-55" value="&lt;font style=&quot;font-size: 14px;&quot;&gt;+ connect(): void&lt;br&gt;+ disconnect(): void&lt;br&gt;+&amp;nbsp;executeQuery(query: string): void&lt;br&gt;+&amp;nbsp;startTransaction()&lt;br&gt;&lt;/font&gt;&lt;div&gt;&lt;font style=&quot;font-size: 14px;&quot;&gt;+&amp;nbsp;fetchData(query: string): ResultSet&lt;/font&gt;&lt;/div&gt;" style="text;html=1;align=left;verticalAlign=middle;resizable=0;points=[];autosize=1;strokeColor=none;fillColor=none;" parent="ANeMYZqWPXqpDpsDzMu_-52" vertex="1">
          <mxGeometry y="26" width="290" height="100" as="geometry" />
        </mxCell>
        <mxCell id="ANeMYZqWPXqpDpsDzMu_-60" value="ValidationService" style="swimlane;fontStyle=0;align=center;verticalAlign=top;childLayout=stackLayout;horizontal=1;startSize=26;horizontalStack=0;resizeParent=1;resizeLast=0;collapsible=1;marginBottom=0;rounded=0;shadow=0;strokeWidth=1;" parent="WIyWlLk6GJQsqaUBKTNV-1" vertex="1">
          <mxGeometry x="-70" y="-40" width="290" height="176" as="geometry">
            <mxRectangle x="130" y="380" width="160" height="26" as="alternateBounds" />
          </mxGeometry>
        </mxCell>
        <mxCell id="ANeMYZqWPXqpDpsDzMu_-61" value="&lt;font style=&quot;font-size: 14px;&quot;&gt;+ validEmail(email: string): bool&lt;br&gt;+ validPassword(password: string): bool&lt;br&gt;+ isNumber(number : int ): bool&lt;br&gt;+&amp;nbsp;validAssetType(type : string) : bool&lt;/font&gt;&lt;div&gt;&lt;font style=&quot;font-size: 14px;&quot;&gt;+ validCardNumber (account : string) : bool&lt;/font&gt;&lt;/div&gt;&lt;div&gt;&lt;font style=&quot;font-size: 14px;&quot;&gt;+ validCardCvv (cvv : string) : bool&lt;/font&gt;&lt;/div&gt;&lt;div&gt;&lt;font style=&quot;font-size: 14px;&quot;&gt;+ validDate (date : string) : bool&lt;/font&gt;&lt;/div&gt;&lt;div&gt;&lt;font style=&quot;font-size: 14px;&quot;&gt;+ isDouble (string str) : bool&lt;/font&gt;&lt;/div&gt;" style="text;html=1;align=left;verticalAlign=middle;resizable=0;points=[];autosize=1;strokeColor=none;fillColor=none;" parent="ANeMYZqWPXqpDpsDzMu_-60" vertex="1">
          <mxGeometry y="26" width="290" height="150" as="geometry" />
        </mxCell>
        <mxCell id="ANeMYZqWPXqpDpsDzMu_-65" value="" style="endArrow=diamondThin;endFill=1;endSize=24;html=1;rounded=0;entryX=0.215;entryY=1.006;entryDx=0;entryDy=0;entryPerimeter=0;exitX=0.5;exitY=0;exitDx=0;exitDy=0;" parent="WIyWlLk6GJQsqaUBKTNV-1" source="ANeMYZqWPXqpDpsDzMu_-16" target="ANeMYZqWPXqpDpsDzMu_-5" edge="1">
          <mxGeometry width="160" relative="1" as="geometry">
            <mxPoint x="-1006.4600000000003" y="431.34" as="sourcePoint" />
            <mxPoint x="-813.55" y="257.99999999999983" as="targetPoint" />
          </mxGeometry>
        </mxCell>
        <mxCell id="ANeMYZqWPXqpDpsDzMu_-66" value="" style="endArrow=diamondThin;endFill=1;endSize=24;html=1;rounded=0;exitX=0.135;exitY=-0.015;exitDx=0;exitDy=0;exitPerimeter=0;entryX=0.883;entryY=1.026;entryDx=0;entryDy=0;entryPerimeter=0;" parent="WIyWlLk6GJQsqaUBKTNV-1" source="ANeMYZqWPXqpDpsDzMu_-39" target="ANeMYZqWPXqpDpsDzMu_-5" edge="1">
          <mxGeometry width="160" relative="1" as="geometry">
            <mxPoint x="-414" y="429" as="sourcePoint" />
            <mxPoint x="-450" y="250" as="targetPoint" />
          </mxGeometry>
        </mxCell>
        <mxCell id="ANeMYZqWPXqpDpsDzMu_-67" value="" style="endArrow=diamondThin;endFill=1;endSize=24;html=1;rounded=0;entryX=0.506;entryY=1.03;entryDx=0;entryDy=0;entryPerimeter=0;exitX=0.25;exitY=0;exitDx=0;exitDy=0;" parent="WIyWlLk6GJQsqaUBKTNV-1" source="ANeMYZqWPXqpDpsDzMu_-25" target="ANeMYZqWPXqpDpsDzMu_-5" edge="1">
          <mxGeometry width="160" relative="1" as="geometry">
            <mxPoint x="-479.9999999999999" y="814.0000000000002" as="sourcePoint" />
            <mxPoint x="-346.6260000000001" y="367.31000000000034" as="targetPoint" />
          </mxGeometry>
        </mxCell>
        <mxCell id="ANeMYZqWPXqpDpsDzMu_-70" value="&lt;font style=&quot;font-size: 18px;&quot;&gt;1&lt;/font&gt;" style="text;html=1;align=center;verticalAlign=middle;resizable=0;points=[];autosize=1;strokeColor=none;fillColor=none;" parent="WIyWlLk6GJQsqaUBKTNV-1" vertex="1">
          <mxGeometry x="-710" y="264" width="30" height="40" as="geometry" />
        </mxCell>
        <mxCell id="ANeMYZqWPXqpDpsDzMu_-71" value="&lt;font style=&quot;font-size: 18px;&quot;&gt;1&lt;/font&gt;" style="text;html=1;align=center;verticalAlign=middle;resizable=0;points=[];autosize=1;strokeColor=none;fillColor=none;" parent="WIyWlLk6GJQsqaUBKTNV-1" vertex="1">
          <mxGeometry x="-840" y="264" width="30" height="40" as="geometry" />
        </mxCell>
        <mxCell id="ANeMYZqWPXqpDpsDzMu_-72" value="&lt;font style=&quot;font-size: 18px;&quot;&gt;1&lt;/font&gt;" style="text;html=1;align=center;verticalAlign=middle;resizable=0;points=[];autosize=1;strokeColor=none;fillColor=none;" parent="WIyWlLk6GJQsqaUBKTNV-1" vertex="1">
          <mxGeometry x="-590" y="280" width="30" height="40" as="geometry" />
        </mxCell>
        <mxCell id="ANeMYZqWPXqpDpsDzMu_-73" value="&lt;font style=&quot;font-size: 18px;&quot;&gt;1&lt;/font&gt;" style="text;html=1;align=center;verticalAlign=middle;resizable=0;points=[];autosize=1;strokeColor=none;fillColor=none;" parent="WIyWlLk6GJQsqaUBKTNV-1" vertex="1">
          <mxGeometry x="-515" y="264" width="30" height="40" as="geometry" />
        </mxCell>
        <mxCell id="ANeMYZqWPXqpDpsDzMu_-74" value="&lt;font style=&quot;font-size: 18px;&quot;&gt;1&lt;/font&gt;" style="text;html=1;align=center;verticalAlign=middle;resizable=0;points=[];autosize=1;strokeColor=none;fillColor=none;" parent="WIyWlLk6GJQsqaUBKTNV-1" vertex="1">
          <mxGeometry x="-360" y="408" width="30" height="40" as="geometry" />
        </mxCell>
        <mxCell id="ANeMYZqWPXqpDpsDzMu_-75" value="" style="endArrow=diamondThin;endFill=1;endSize=24;html=1;rounded=0;entryX=-0.001;entryY=0.772;entryDx=0;entryDy=0;exitX=1;exitY=0;exitDx=0;exitDy=0;entryPerimeter=0;" parent="WIyWlLk6GJQsqaUBKTNV-1" source="ANeMYZqWPXqpDpsDzMu_-8" target="ANeMYZqWPXqpDpsDzMu_-5" edge="1">
          <mxGeometry width="160" relative="1" as="geometry">
            <mxPoint x="-900" y="677" as="sourcePoint" />
            <mxPoint x="-498" y="359.9999999999998" as="targetPoint" />
          </mxGeometry>
        </mxCell>
        <mxCell id="ANeMYZqWPXqpDpsDzMu_-76" value="&lt;span style=&quot;color: rgb(0, 0, 0); font-family: Helvetica; font-size: 18px; font-style: normal; font-variant-ligatures: normal; font-variant-caps: normal; font-weight: 400; letter-spacing: normal; orphans: 2; text-align: center; text-indent: 0px; text-transform: none; widows: 2; word-spacing: 0px; -webkit-text-stroke-width: 0px; white-space: nowrap; background-color: rgb(236, 236, 236); text-decoration-thickness: initial; text-decoration-style: initial; text-decoration-color: initial; display: inline !important; float: none;&quot;&gt;1&lt;/span&gt;" style="text;whiteSpace=wrap;html=1;" parent="WIyWlLk6GJQsqaUBKTNV-1" vertex="1">
          <mxGeometry x="-930" y="220" width="40" height="50" as="geometry" />
        </mxCell>
        <mxCell id="ANeMYZqWPXqpDpsDzMu_-79" value="&lt;span style=&quot;color: rgb(0, 0, 0); font-family: Helvetica; font-size: 18px; font-style: normal; font-variant-ligatures: normal; font-variant-caps: normal; font-weight: 400; letter-spacing: normal; orphans: 2; text-align: center; text-indent: 0px; text-transform: none; widows: 2; word-spacing: 0px; -webkit-text-stroke-width: 0px; white-space: nowrap; background-color: rgb(236, 236, 236); text-decoration-thickness: initial; text-decoration-style: initial; text-decoration-color: initial; display: inline !important; float: none;&quot;&gt;0..*&lt;/span&gt;" style="text;whiteSpace=wrap;html=1;" parent="WIyWlLk6GJQsqaUBKTNV-1" vertex="1">
          <mxGeometry x="-920" y="394" width="60" height="30" as="geometry" />
        </mxCell>
        <mxCell id="ANeMYZqWPXqpDpsDzMu_-82" value="&lt;span style=&quot;color: rgb(0, 0, 0); font-family: Helvetica; font-size: 18px; font-style: normal; font-variant-ligatures: normal; font-variant-caps: normal; font-weight: 400; letter-spacing: normal; orphans: 2; text-align: center; text-indent: 0px; text-transform: none; widows: 2; word-spacing: 0px; -webkit-text-stroke-width: 0px; white-space: nowrap; background-color: rgb(236, 236, 236); text-decoration-thickness: initial; text-decoration-style: initial; text-decoration-color: initial; display: inline !important; float: none;&quot;&gt;1&lt;/span&gt;" style="text;whiteSpace=wrap;html=1;" parent="WIyWlLk6GJQsqaUBKTNV-1" vertex="1">
          <mxGeometry x="-530" y="433" width="20" height="30" as="geometry" />
        </mxCell>
        <mxCell id="ANeMYZqWPXqpDpsDzMu_-83" value="&lt;span style=&quot;color: rgb(0, 0, 0); font-family: Helvetica; font-size: 18px; font-style: normal; font-variant-ligatures: normal; font-variant-caps: normal; font-weight: 400; letter-spacing: normal; orphans: 2; text-align: center; text-indent: 0px; text-transform: none; widows: 2; word-spacing: 0px; -webkit-text-stroke-width: 0px; white-space: nowrap; background-color: rgb(236, 236, 236); text-decoration-thickness: initial; text-decoration-style: initial; text-decoration-color: initial; display: inline !important; float: none;&quot;&gt;1&lt;/span&gt;" style="text;whiteSpace=wrap;html=1;" parent="WIyWlLk6GJQsqaUBKTNV-1" vertex="1">
          <mxGeometry x="-760" y="394" width="60" height="50" as="geometry" />
        </mxCell>
        <mxCell id="ANeMYZqWPXqpDpsDzMu_-84" value="" style="endArrow=open;endFill=1;endSize=12;html=1;rounded=0;exitX=0.5;exitY=1;exitDx=0;exitDy=0;entryX=0.5;entryY=0;entryDx=0;entryDy=0;" parent="WIyWlLk6GJQsqaUBKTNV-1" source="zkfFHV4jXpPFQw0GAbJ--13" target="ANeMYZqWPXqpDpsDzMu_-48" edge="1">
          <mxGeometry width="160" relative="1" as="geometry">
            <mxPoint x="330" y="380" as="sourcePoint" />
            <mxPoint x="490" y="380" as="targetPoint" />
          </mxGeometry>
        </mxCell>
        <mxCell id="ANeMYZqWPXqpDpsDzMu_-85" value="" style="endArrow=open;endFill=1;endSize=12;html=1;rounded=0;exitX=0.75;exitY=1;exitDx=0;exitDy=0;entryX=0.5;entryY=0;entryDx=0;entryDy=0;" parent="WIyWlLk6GJQsqaUBKTNV-1" source="zkfFHV4jXpPFQw0GAbJ--13" target="ANeMYZqWPXqpDpsDzMu_-35" edge="1">
          <mxGeometry width="160" relative="1" as="geometry">
            <mxPoint x="349" y="350" as="sourcePoint" />
            <mxPoint x="295" y="434" as="targetPoint" />
          </mxGeometry>
        </mxCell>
        <mxCell id="ANeMYZqWPXqpDpsDzMu_-93" value="" style="endArrow=open;endFill=1;endSize=12;html=1;rounded=0;exitX=1.01;exitY=0.279;exitDx=0;exitDy=0;exitPerimeter=0;entryX=-0.01;entryY=0.529;entryDx=0;entryDy=0;entryPerimeter=0;" parent="WIyWlLk6GJQsqaUBKTNV-1" source="zkfFHV4jXpPFQw0GAbJ--7" target="8kL_XNUACjtZRWCxMRM6-10" edge="1">
          <mxGeometry width="160" relative="1" as="geometry">
            <mxPoint x="-135.8800000000001" y="89.99999999999987" as="sourcePoint" />
            <mxPoint x="-25" y="104.46588692442207" as="targetPoint" />
          </mxGeometry>
        </mxCell>
        <mxCell id="ANeMYZqWPXqpDpsDzMu_-94" value="StockMarketAccount" style="swimlane;fontStyle=0;align=center;verticalAlign=top;childLayout=stackLayout;horizontal=1;startSize=26;horizontalStack=0;resizeParent=1;resizeLast=0;collapsible=1;marginBottom=0;rounded=0;shadow=0;strokeWidth=1;" parent="WIyWlLk6GJQsqaUBKTNV-1" vertex="1">
          <mxGeometry x="-20" y="420" width="190" height="154" as="geometry">
            <mxRectangle x="340" y="380" width="170" height="26" as="alternateBounds" />
          </mxGeometry>
        </mxCell>
        <mxCell id="ANeMYZqWPXqpDpsDzMu_-95" value="&lt;div&gt;&lt;span style=&quot;font-size: 14px;&quot;&gt;- accountID: string&lt;/span&gt;&lt;/div&gt;&lt;div&gt;&lt;span style=&quot;font-size: 14px;&quot;&gt;- brokerName: string&lt;/span&gt;&lt;/div&gt;&lt;div&gt;&lt;span style=&quot;font-size: 14px;&quot;&gt;- linkedAssets: List&amp;lt;Asset&amp;gt;&lt;/span&gt;&lt;/div&gt;&lt;div&gt;&lt;br&gt;&lt;/div&gt;" style="text;html=1;align=left;verticalAlign=middle;resizable=0;points=[];autosize=1;strokeColor=none;fillColor=none;" parent="ANeMYZqWPXqpDpsDzMu_-94" vertex="1">
          <mxGeometry y="26" width="190" height="80" as="geometry" />
        </mxCell>
        <mxCell id="ANeMYZqWPXqpDpsDzMu_-96" value="" style="line;strokeWidth=1;fillColor=none;align=left;verticalAlign=middle;spacingTop=-1;spacingLeft=3;spacingRight=3;rotatable=0;labelPosition=right;points=[];portConstraint=eastwest;strokeColor=inherit;" parent="ANeMYZqWPXqpDpsDzMu_-94" vertex="1">
          <mxGeometry y="106" width="190" height="8" as="geometry" />
        </mxCell>
        <mxCell id="ANeMYZqWPXqpDpsDzMu_-97" value="&lt;div&gt;+ linkAccount()&lt;/div&gt;&lt;div&gt;+ fetchHoldings()&lt;/div&gt;" style="text;html=1;align=left;verticalAlign=middle;resizable=0;points=[];autosize=1;strokeColor=none;fillColor=none;" parent="ANeMYZqWPXqpDpsDzMu_-94" vertex="1">
          <mxGeometry y="114" width="190" height="40" as="geometry" />
        </mxCell>
        <mxCell id="ANeMYZqWPXqpDpsDzMu_-101" value="" style="endArrow=open;endFill=1;endSize=12;html=1;rounded=0;exitX=0.088;exitY=1.041;exitDx=0;exitDy=0;entryX=1.03;entryY=0.633;entryDx=0;entryDy=0;exitPerimeter=0;entryPerimeter=0;" parent="WIyWlLk6GJQsqaUBKTNV-1" source="ANeMYZqWPXqpDpsDzMu_-7" target="ANeMYZqWPXqpDpsDzMu_-95" edge="1">
          <mxGeometry width="160" relative="1" as="geometry">
            <mxPoint x="264" y="300" as="sourcePoint" />
            <mxPoint x="200" y="400" as="targetPoint" />
          </mxGeometry>
        </mxCell>
        <mxCell id="ANeMYZqWPXqpDpsDzMu_-102" value="" style="endArrow=open;endFill=1;endSize=12;html=1;rounded=0;exitX=1.012;exitY=0.726;exitDx=0;exitDy=0;entryX=0.005;entryY=0.85;entryDx=0;entryDy=0;entryPerimeter=0;exitPerimeter=0;" parent="WIyWlLk6GJQsqaUBKTNV-1" source="ANeMYZqWPXqpDpsDzMu_-5" target="ANeMYZqWPXqpDpsDzMu_-95" edge="1">
          <mxGeometry width="160" relative="1" as="geometry">
            <mxPoint x="-80" y="310" as="sourcePoint" />
            <mxPoint x="-144" y="410" as="targetPoint" />
          </mxGeometry>
        </mxCell>
        <mxCell id="8kL_XNUACjtZRWCxMRM6-0" value="Manage_Asset" style="swimlane;fontStyle=1;align=center;verticalAlign=top;childLayout=stackLayout;horizontal=1;startSize=26;horizontalStack=0;resizeParent=1;resizeParentMax=0;resizeLast=0;collapsible=1;marginBottom=0;whiteSpace=wrap;html=1;" parent="WIyWlLk6GJQsqaUBKTNV-1" vertex="1">
          <mxGeometry x="-1440" y="130" width="430" height="140" as="geometry" />
        </mxCell>
        <mxCell id="8kL_XNUACjtZRWCxMRM6-2" value="" style="line;strokeWidth=1;fillColor=none;align=left;verticalAlign=middle;spacingTop=-1;spacingLeft=3;spacingRight=3;rotatable=0;labelPosition=right;points=[];portConstraint=eastwest;strokeColor=inherit;" parent="8kL_XNUACjtZRWCxMRM6-0" vertex="1">
          <mxGeometry y="26" width="430" height="8" as="geometry" />
        </mxCell>
        <mxCell id="8kL_XNUACjtZRWCxMRM6-3" value="+ assetMenu (Investor investor) : void&lt;div&gt;+ addRegularAsset (Investor investor , validationService vs , scanner sc) : void&lt;/div&gt;&lt;div&gt;+ addRiskAsset (&lt;span style=&quot;background-color: transparent; color: light-dark(rgb(0, 0, 0), rgb(255, 255, 255));&quot;&gt;Investor investor , validationService vs , scanner sc&lt;/span&gt;&lt;span style=&quot;background-color: transparent; color: light-dark(rgb(0, 0, 0), rgb(255, 255, 255));&quot;&gt;) : void&lt;/span&gt;&lt;/div&gt;&lt;div&gt;&lt;span style=&quot;background-color: transparent; color: light-dark(rgb(0, 0, 0), rgb(255, 255, 255));&quot;&gt;+ editAssets (&lt;/span&gt;&lt;span style=&quot;background-color: transparent; color: light-dark(rgb(0, 0, 0), rgb(255, 255, 255));&quot;&gt;Investor investor , validationService vs , scanner sc&lt;/span&gt;&lt;span style=&quot;background-color: transparent; color: light-dark(rgb(0, 0, 0), rgb(255, 255, 255));&quot;&gt;) : void&lt;/span&gt;&lt;/div&gt;&lt;div&gt;&lt;span style=&quot;background-color: transparent; color: light-dark(rgb(0, 0, 0), rgb(255, 255, 255));&quot;&gt;+ removeAsset (&lt;/span&gt;&lt;span style=&quot;background-color: transparent; color: light-dark(rgb(0, 0, 0), rgb(255, 255, 255));&quot;&gt;Investor investor , scanner sc&lt;/span&gt;&lt;span style=&quot;background-color: transparent; color: light-dark(rgb(0, 0, 0), rgb(255, 255, 255));&quot;&gt;) : void&lt;/span&gt;&lt;/div&gt;&lt;div&gt;&lt;span style=&quot;background-color: transparent; color: light-dark(rgb(0, 0, 0), rgb(255, 255, 255));&quot;&gt;+ calculateTotalAssets (&lt;/span&gt;&lt;span style=&quot;background-color: transparent; color: light-dark(rgb(0, 0, 0), rgb(255, 255, 255));&quot;&gt;Investor investor &lt;/span&gt;&lt;span style=&quot;background-color: transparent; color: light-dark(rgb(0, 0, 0), rgb(255, 255, 255));&quot;&gt;) : void&lt;/span&gt;&lt;/div&gt;" style="text;strokeColor=none;fillColor=none;align=left;verticalAlign=top;spacingLeft=4;spacingRight=4;overflow=hidden;rotatable=0;points=[[0,0.5],[1,0.5]];portConstraint=eastwest;whiteSpace=wrap;html=1;" parent="8kL_XNUACjtZRWCxMRM6-0" vertex="1">
          <mxGeometry y="34" width="430" height="106" as="geometry" />
        </mxCell>
        <mxCell id="8kL_XNUACjtZRWCxMRM6-4" value="" style="endArrow=diamondThin;endFill=1;endSize=24;html=1;rounded=0;exitX=0.499;exitY=1.022;exitDx=0;exitDy=0;exitPerimeter=0;entryX=0.25;entryY=0;entryDx=0;entryDy=0;" parent="WIyWlLk6GJQsqaUBKTNV-1" source="8kL_XNUACjtZRWCxMRM6-3" target="ANeMYZqWPXqpDpsDzMu_-8" edge="1">
          <mxGeometry width="160" relative="1" as="geometry">
            <mxPoint x="-860" y="206" as="sourcePoint" />
            <mxPoint x="-1181.66" y="520" as="targetPoint" />
          </mxGeometry>
        </mxCell>
        <mxCell id="8kL_XNUACjtZRWCxMRM6-5" value="&lt;font style=&quot;font-size: 18px;&quot;&gt;1&lt;/font&gt;" style="text;html=1;align=center;verticalAlign=middle;resizable=0;points=[];autosize=1;strokeColor=none;fillColor=none;" parent="WIyWlLk6GJQsqaUBKTNV-1" vertex="1">
          <mxGeometry x="-1150" y="335" width="30" height="40" as="geometry" />
        </mxCell>
        <mxCell id="8kL_XNUACjtZRWCxMRM6-6" value="&lt;font style=&quot;font-size: 18px;&quot;&gt;1&lt;/font&gt;" style="text;html=1;align=center;verticalAlign=middle;resizable=0;points=[];autosize=1;strokeColor=none;fillColor=none;" parent="WIyWlLk6GJQsqaUBKTNV-1" vertex="1">
          <mxGeometry x="-1210" y="264" width="30" height="40" as="geometry" />
        </mxCell>
        <mxCell id="8kL_XNUACjtZRWCxMRM6-9" value="Regiser" style="swimlane;fontStyle=0;align=center;verticalAlign=top;childLayout=stackLayout;horizontal=1;startSize=26;horizontalStack=0;resizeParent=1;resizeLast=0;collapsible=1;marginBottom=0;rounded=0;shadow=0;strokeWidth=1;" parent="WIyWlLk6GJQsqaUBKTNV-1" vertex="1">
          <mxGeometry x="-40" y="-120" width="190" height="66" as="geometry">
            <mxRectangle x="340" y="380" width="170" height="26" as="alternateBounds" />
          </mxGeometry>
        </mxCell>
        <mxCell id="8kL_XNUACjtZRWCxMRM6-10" value="&amp;nbsp;+ Start () : bool" style="text;html=1;align=left;verticalAlign=middle;resizable=0;points=[];autosize=1;strokeColor=none;fillColor=none;" parent="8kL_XNUACjtZRWCxMRM6-9" vertex="1">
          <mxGeometry y="26" width="190" height="30" as="geometry" />
        </mxCell>
        <mxCell id="8kL_XNUACjtZRWCxMRM6-13" value="" style="endArrow=open;endFill=1;endSize=12;html=1;rounded=0;exitX=-0.004;exitY=0.161;exitDx=0;exitDy=0;exitPerimeter=0;entryX=1.011;entryY=0.505;entryDx=0;entryDy=0;entryPerimeter=0;" parent="WIyWlLk6GJQsqaUBKTNV-1" source="zkfFHV4jXpPFQw0GAbJ--13" target="8kL_XNUACjtZRWCxMRM6-10" edge="1">
          <mxGeometry width="160" relative="1" as="geometry">
            <mxPoint x="220" y="141" as="sourcePoint" />
            <mxPoint x="324" y="175" as="targetPoint" />
          </mxGeometry>
        </mxCell>
        <mxCell id="ANeMYZqWPXqpDpsDzMu_-77" value="&lt;span style=&quot;color: rgb(0, 0, 0); font-family: Helvetica; font-size: 18px; font-style: normal; font-variant-ligatures: normal; font-variant-caps: normal; font-weight: 400; letter-spacing: normal; orphans: 2; text-align: center; text-indent: 0px; text-transform: none; widows: 2; word-spacing: 0px; -webkit-text-stroke-width: 0px; white-space: nowrap; background-color: rgb(236, 236, 236); text-decoration-thickness: initial; text-decoration-style: initial; text-decoration-color: initial; display: inline !important; float: none;&quot;&gt;0..*&lt;/span&gt;" style="text;whiteSpace=wrap;html=1;" parent="WIyWlLk6GJQsqaUBKTNV-1" vertex="1">
          <mxGeometry x="-1040" y="330" width="40" height="50" as="geometry" />
        </mxCell>
        <mxCell id="8kL_XNUACjtZRWCxMRM6-24" value="" style="endArrow=open;endFill=1;endSize=12;html=1;rounded=0;exitX=1.009;exitY=0.792;exitDx=0;exitDy=0;exitPerimeter=0;entryX=-0.007;entryY=0.603;entryDx=0;entryDy=0;entryPerimeter=0;" parent="WIyWlLk6GJQsqaUBKTNV-1" source="zkfFHV4jXpPFQw0GAbJ--7" target="ANeMYZqWPXqpDpsDzMu_-61" edge="1">
          <mxGeometry width="160" relative="1" as="geometry">
            <mxPoint x="-444" y="147" as="sourcePoint" />
            <mxPoint x="-40" y="40" as="targetPoint" />
          </mxGeometry>
        </mxCell>
        <mxCell id="8kL_XNUACjtZRWCxMRM6-25" value="" style="endArrow=open;endFill=1;endSize=12;html=1;rounded=0;exitX=-0.021;exitY=0.245;exitDx=0;exitDy=0;exitPerimeter=0;entryX=1.01;entryY=0.37;entryDx=0;entryDy=0;entryPerimeter=0;" parent="WIyWlLk6GJQsqaUBKTNV-1" source="ANeMYZqWPXqpDpsDzMu_-7" target="ANeMYZqWPXqpDpsDzMu_-61" edge="1">
          <mxGeometry width="160" relative="1" as="geometry">
            <mxPoint x="120" y="166" as="sourcePoint" />
            <mxPoint x="524" y="59" as="targetPoint" />
          </mxGeometry>
        </mxCell>
        <mxCell id="8kL_XNUACjtZRWCxMRM6-26" value="" style="endArrow=open;endFill=1;endSize=12;html=1;rounded=0;entryX=1.01;entryY=0.405;entryDx=0;entryDy=0;entryPerimeter=0;exitX=-0.016;exitY=0.435;exitDx=0;exitDy=0;exitPerimeter=0;" parent="WIyWlLk6GJQsqaUBKTNV-1" source="ANeMYZqWPXqpDpsDzMu_-7" target="ANeMYZqWPXqpDpsDzMu_-55" edge="1">
          <mxGeometry width="160" relative="1" as="geometry">
            <mxPoint x="530" y="80" as="sourcePoint" />
            <mxPoint x="233" y="52" as="targetPoint" />
          </mxGeometry>
        </mxCell>
        <mxCell id="8kL_XNUACjtZRWCxMRM6-27" value="" style="endArrow=open;endFill=1;endSize=12;html=1;rounded=0;exitX=1;exitY=0.081;exitDx=0;exitDy=0;exitPerimeter=0;entryX=0.007;entryY=0.275;entryDx=0;entryDy=0;entryPerimeter=0;" parent="WIyWlLk6GJQsqaUBKTNV-1" source="ANeMYZqWPXqpDpsDzMu_-5" target="ANeMYZqWPXqpDpsDzMu_-55" edge="1">
          <mxGeometry width="160" relative="1" as="geometry">
            <mxPoint x="-436" y="83" as="sourcePoint" />
            <mxPoint x="-62" y="86" as="targetPoint" />
          </mxGeometry>
        </mxCell>
        <mxCell id="8kL_XNUACjtZRWCxMRM6-30" value="DashBoard" style="swimlane;fontStyle=0;align=center;verticalAlign=top;childLayout=stackLayout;horizontal=1;startSize=26;horizontalStack=0;resizeParent=1;resizeLast=0;collapsible=1;marginBottom=0;rounded=0;shadow=0;strokeWidth=1;" parent="WIyWlLk6GJQsqaUBKTNV-1" vertex="1">
          <mxGeometry y="304" width="150" height="86" as="geometry">
            <mxRectangle x="340" y="380" width="170" height="26" as="alternateBounds" />
          </mxGeometry>
        </mxCell>
        <mxCell id="8kL_XNUACjtZRWCxMRM6-32" value="" style="line;strokeWidth=1;fillColor=none;align=left;verticalAlign=middle;spacingTop=-1;spacingLeft=3;spacingRight=3;rotatable=0;labelPosition=right;points=[];portConstraint=eastwest;strokeColor=inherit;" parent="8kL_XNUACjtZRWCxMRM6-30" vertex="1">
          <mxGeometry y="26" width="150" height="8" as="geometry" />
        </mxCell>
        <mxCell id="8kL_XNUACjtZRWCxMRM6-33" value="+&amp;nbsp;dashboard() : void" style="text;html=1;align=left;verticalAlign=middle;resizable=0;points=[];autosize=1;strokeColor=none;fillColor=none;" parent="8kL_XNUACjtZRWCxMRM6-30" vertex="1">
          <mxGeometry y="34" width="150" height="30" as="geometry" />
        </mxCell>
        <mxCell id="8kL_XNUACjtZRWCxMRM6-34" value="" style="endArrow=open;endFill=1;endSize=12;html=1;rounded=0;entryX=1.007;entryY=0.518;entryDx=0;entryDy=0;entryPerimeter=0;exitX=-0.021;exitY=0.842;exitDx=0;exitDy=0;exitPerimeter=0;" parent="WIyWlLk6GJQsqaUBKTNV-1" source="ANeMYZqWPXqpDpsDzMu_-7" target="8kL_XNUACjtZRWCxMRM6-33" edge="1">
          <mxGeometry width="160" relative="1" as="geometry">
            <mxPoint x="514" y="159" as="sourcePoint" />
            <mxPoint x="190" y="330" as="targetPoint" />
          </mxGeometry>
        </mxCell>
        <mxCell id="8kL_XNUACjtZRWCxMRM6-35" value="" style="endArrow=open;endFill=1;endSize=12;html=1;rounded=0;exitX=1.006;exitY=0.441;exitDx=0;exitDy=0;exitPerimeter=0;entryX=0;entryY=0.75;entryDx=0;entryDy=0;" parent="WIyWlLk6GJQsqaUBKTNV-1" source="ANeMYZqWPXqpDpsDzMu_-5" target="8kL_XNUACjtZRWCxMRM6-30" edge="1">
          <mxGeometry width="160" relative="1" as="geometry">
            <mxPoint x="-440" y="119" as="sourcePoint" />
            <mxPoint x="-58" y="218" as="targetPoint" />
          </mxGeometry>
        </mxCell>
        <mxCell id="ANeMYZqWPXqpDpsDzMu_-68" value="" style="endArrow=diamondThin;endFill=1;endSize=24;html=1;rounded=0;entryX=0.688;entryY=0.992;entryDx=0;entryDy=0;entryPerimeter=0;exitX=0.5;exitY=0;exitDx=0;exitDy=0;" parent="WIyWlLk6GJQsqaUBKTNV-1" source="ANeMYZqWPXqpDpsDzMu_-29" target="ANeMYZqWPXqpDpsDzMu_-5" edge="1">
          <mxGeometry width="160" relative="1" as="geometry">
            <mxPoint x="-479.49" y="451.2" as="sourcePoint" />
            <mxPoint x="-570.51" y="263.9999999999997" as="targetPoint" />
          </mxGeometry>
        </mxCell>
        <mxCell id="8kL_XNUACjtZRWCxMRM6-36" value="Manage_Bank" style="swimlane;fontStyle=1;align=center;verticalAlign=top;childLayout=stackLayout;horizontal=1;startSize=26;horizontalStack=0;resizeParent=1;resizeParentMax=0;resizeLast=0;collapsible=1;marginBottom=0;whiteSpace=wrap;html=1;" parent="WIyWlLk6GJQsqaUBKTNV-1" vertex="1">
          <mxGeometry x="-350" y="690" width="220" height="80" as="geometry" />
        </mxCell>
        <mxCell id="8kL_XNUACjtZRWCxMRM6-37" value="" style="line;strokeWidth=1;fillColor=none;align=left;verticalAlign=middle;spacingTop=-1;spacingLeft=3;spacingRight=3;rotatable=0;labelPosition=right;points=[];portConstraint=eastwest;strokeColor=inherit;" parent="8kL_XNUACjtZRWCxMRM6-36" vertex="1">
          <mxGeometry y="26" width="220" height="8" as="geometry" />
        </mxCell>
        <mxCell id="8kL_XNUACjtZRWCxMRM6-38" value="+ bankMenu (Investor investor) : void" style="text;strokeColor=none;fillColor=none;align=left;verticalAlign=top;spacingLeft=4;spacingRight=4;overflow=hidden;rotatable=0;points=[[0,0.5],[1,0.5]];portConstraint=eastwest;whiteSpace=wrap;html=1;" parent="8kL_XNUACjtZRWCxMRM6-36" vertex="1">
          <mxGeometry y="34" width="220" height="46" as="geometry" />
        </mxCell>
        <mxCell id="8kL_XNUACjtZRWCxMRM6-39" value="" style="endArrow=diamondThin;endFill=1;endSize=24;html=1;rounded=0;exitX=0.5;exitY=0;exitDx=0;exitDy=0;entryX=0.5;entryY=1;entryDx=0;entryDy=0;" parent="WIyWlLk6GJQsqaUBKTNV-1" source="8kL_XNUACjtZRWCxMRM6-36" target="ANeMYZqWPXqpDpsDzMu_-39" edge="1">
          <mxGeometry width="160" relative="1" as="geometry">
            <mxPoint x="-503" y="630" as="sourcePoint" />
            <mxPoint x="-450" y="717" as="targetPoint" />
          </mxGeometry>
        </mxCell>
        <mxCell id="8kL_XNUACjtZRWCxMRM6-40" value="&lt;font style=&quot;font-size: 18px;&quot;&gt;1&lt;/font&gt;" style="text;html=1;align=center;verticalAlign=middle;resizable=0;points=[];autosize=1;strokeColor=none;fillColor=none;" parent="WIyWlLk6GJQsqaUBKTNV-1" vertex="1">
          <mxGeometry x="-290" y="588" width="30" height="40" as="geometry" />
        </mxCell>
        <mxCell id="8kL_XNUACjtZRWCxMRM6-41" value="&lt;font style=&quot;font-size: 18px;&quot;&gt;1&lt;/font&gt;" style="text;html=1;align=center;verticalAlign=middle;resizable=0;points=[];autosize=1;strokeColor=none;fillColor=none;" parent="WIyWlLk6GJQsqaUBKTNV-1" vertex="1">
          <mxGeometry x="-270" y="650.5" width="30" height="40" as="geometry" />
        </mxCell>
        <mxCell id="3q-L7HUS71UoEhC-n5JC-7" value="" style="endArrow=block;endSize=10;endFill=0;shadow=0;strokeWidth=1;rounded=0;curved=0;edgeStyle=elbowEdgeStyle;elbow=vertical;entryX=0.472;entryY=1.042;entryDx=0;entryDy=0;entryPerimeter=0;exitX=0.435;exitY=-0.015;exitDx=0;exitDy=0;exitPerimeter=0;" edge="1" parent="WIyWlLk6GJQsqaUBKTNV-1" source="ANeMYZqWPXqpDpsDzMu_-21" target="ANeMYZqWPXqpDpsDzMu_-14">
          <mxGeometry width="160" relative="1" as="geometry">
            <mxPoint x="-750" y="800" as="sourcePoint" />
            <mxPoint x="-970" y="690" as="targetPoint" />
          </mxGeometry>
        </mxCell>
        <mxCell id="3q-L7HUS71UoEhC-n5JC-8" value="" style="line;strokeWidth=1;fillColor=none;align=left;verticalAlign=middle;spacingTop=-1;spacingLeft=3;spacingRight=3;rotatable=0;labelPosition=right;points=[];portConstraint=eastwest;strokeColor=inherit;" vertex="1" parent="WIyWlLk6GJQsqaUBKTNV-1">
          <mxGeometry x="-942.5" y="650" width="170" as="geometry" />
        </mxCell>
        <mxCell id="3q-L7HUS71UoEhC-n5JC-9" value="Mange_&lt;span style=&quot;text-wrap-mode: nowrap;&quot;&gt;FinancialGoal&lt;/span&gt;" style="swimlane;fontStyle=1;align=center;verticalAlign=top;childLayout=stackLayout;horizontal=1;startSize=26;horizontalStack=0;resizeParent=1;resizeParentMax=0;resizeLast=0;collapsible=1;marginBottom=0;whiteSpace=wrap;html=1;" vertex="1" parent="WIyWlLk6GJQsqaUBKTNV-1">
          <mxGeometry x="-1007.5" y="786" width="260" height="80" as="geometry" />
        </mxCell>
        <mxCell id="3q-L7HUS71UoEhC-n5JC-10" value="" style="line;strokeWidth=1;fillColor=none;align=left;verticalAlign=middle;spacingTop=-1;spacingLeft=3;spacingRight=3;rotatable=0;labelPosition=right;points=[];portConstraint=eastwest;strokeColor=inherit;" vertex="1" parent="3q-L7HUS71UoEhC-n5JC-9">
          <mxGeometry y="26" width="260" height="8" as="geometry" />
        </mxCell>
        <mxCell id="3q-L7HUS71UoEhC-n5JC-11" value="+ f&lt;span style=&quot;text-align: center; text-wrap-mode: nowrap;&quot;&gt;inancialGoalMenu&lt;/span&gt;&amp;nbsp;(Investor investor) : void" style="text;strokeColor=none;fillColor=none;align=left;verticalAlign=top;spacingLeft=4;spacingRight=4;overflow=hidden;rotatable=0;points=[[0,0.5],[1,0.5]];portConstraint=eastwest;whiteSpace=wrap;html=1;" vertex="1" parent="3q-L7HUS71UoEhC-n5JC-9">
          <mxGeometry y="34" width="260" height="46" as="geometry" />
        </mxCell>
        <mxCell id="3q-L7HUS71UoEhC-n5JC-12" value="" style="endArrow=diamondThin;endFill=1;endSize=24;html=1;rounded=0;exitX=0.5;exitY=0;exitDx=0;exitDy=0;entryX=0.557;entryY=1.037;entryDx=0;entryDy=0;entryPerimeter=0;" edge="1" parent="WIyWlLk6GJQsqaUBKTNV-1" source="3q-L7HUS71UoEhC-n5JC-9" target="ANeMYZqWPXqpDpsDzMu_-19">
          <mxGeometry width="160" relative="1" as="geometry">
            <mxPoint x="-1025.5" y="686" as="sourcePoint" />
            <mxPoint x="-857.5" y="650" as="targetPoint" />
          </mxGeometry>
        </mxCell>
        <mxCell id="3q-L7HUS71UoEhC-n5JC-13" value="&lt;font style=&quot;font-size: 18px;&quot;&gt;1&lt;/font&gt;" style="text;html=1;align=center;verticalAlign=middle;resizable=0;points=[];autosize=1;strokeColor=none;fillColor=none;" vertex="1" parent="WIyWlLk6GJQsqaUBKTNV-1">
          <mxGeometry x="-912.5" y="658" width="30" height="40" as="geometry" />
        </mxCell>
        <mxCell id="3q-L7HUS71UoEhC-n5JC-14" value="&lt;font style=&quot;font-size: 18px;&quot;&gt;1&lt;/font&gt;" style="text;html=1;align=center;verticalAlign=middle;resizable=0;points=[];autosize=1;strokeColor=none;fillColor=none;" vertex="1" parent="WIyWlLk6GJQsqaUBKTNV-1">
          <mxGeometry x="-922.5" y="746" width="30" height="40" as="geometry" />
        </mxCell>
      </root>
    </mxGraphModel>
  </diagram>
</mxfile>
